<svg width="13" height="13" aria-labelledby="iconword" fill="none" xmlns="http://www.w3.org/2000/svg"><title id="iconword">Word Icon</title><path fill-rule="evenodd" clip-rule="evenodd" d="M7.104.053a1361.026 1361.026 0 0 1-3.878.769 6963.82 6963.82 0 0 1-3.101.614l-.123.024L0 6.501c0 3.487 0 5.042.006 5.042a119.501 119.501 0 0 1 1.484.292l.44.087.61.12.578.115 1.802.357a1775.516 1775.516 0 0 0 2.435.482l.016.004V11.687h2.555c2.537 0 2.554 0 2.615-.016.121-.03.243-.11.322-.21a.826.826 0 0 0 .124-.256c.012-.05.013-.271.013-4.71V1.84l-.02-.069a.633.633 0 0 0-.413-.437l-.05-.018-2.573-.002-2.573-.002V.656C7.371.294 7.37 0 7.366 0l-.262.053Zm5.38 6.446v4.657H7.37v-.889h4.304v-.584H7.37v-.827h4.304v-.584H7.37v-.805h4.304v-.592H7.37v-.804h4.304l-.002-.294-.002-.295-2.15-.001-2.15-.002v-.82h4.304l-.002-.294-.002-.294-2.15-.002-2.15-.002V3.27h4.304v-.592H7.37v-.835H12.484V6.5ZM5.888 4.232c-.005.028-.016.075-.137.598a793.636 793.636 0 0 0-.495 2.148c-.024.1-.07.296-.101.436a81.667 81.667 0 0 1-.261 1.126c-.002.001-.1-.005-.22-.015a78.404 78.404 0 0 0-.666-.051c-.005-.006-.567-2.682-.58-2.759a2.666 2.666 0 0 1-.03-.285v-.039l-.006.046-.018.152c-.014.13-.03.215-.1.542-.03.14-.09.413-.13.607a687.556 687.556 0 0 1-.348 1.623c-.003.014-.008.017-.034.016-.052 0-.755-.056-.759-.06-.004-.005-.008-.026-.188-.933a225.797 225.797 0 0 0-.278-1.397l-.083-.417c-.181-.909-.2-1.004-.196-1.008.004-.004.654-.055.679-.053l.021.002.132.804c.32 1.946.308 1.866.318 2.061.005.099.016.156.016.09.001-.055.028-.263.045-.346l.08-.374.103-.482a153.61 153.61 0 0 1 .224-1.036 59.606 59.606 0 0 1 .174-.803c.004-.005.79-.065.794-.061.003.004.04.184.253 1.225.352 1.722.34 1.655.36 1.866.012.12.019.147.019.08 0-.054.018-.222.036-.337.007-.05.07-.406.137-.79l.238-1.354c.14-.801.136-.776.143-.783.003-.003.067-.009.142-.014l.401-.03c.145-.012.276-.022.292-.022l.028-.001-.005.028Z" /></svg>
